<svg 
 xmlns="http://www.w3.org/2000/svg" 
 width="20" 
 height="20" 
 viewBox="0 0 45 45.009"
>
<path 
 d="M30.535,14.356C29.22,6.252,26.116.563,22.5.563s-6.715,5.69-8.031,13.793ZM13.793,23.067a56.878,56.878,0,0,0,.3,5.808H30.907a56.879,56.879,0,0,0,.3-5.808,56.879,56.879,0,0,0-.3-5.808H14.093A56.877,56.877,0,0,0,13.793,23.067Zm29.465-8.711A22.552,22.552,0,0,0,28.92,1.506c2.214,3.067,3.739,7.686,4.537,12.849ZM16.08,1.506A22.537,22.537,0,0,0,1.751,14.356h9.8c.789-5.163,2.314-9.782,4.528-12.849ZM44.229,17.259H33.82c.191,1.906.3,3.857.3,5.808s-.109,3.9-.3,5.808h10.4A22.311,22.311,0,0,0,45,23.067,22.7,22.7,0,0,0,44.229,17.259ZM10.889,23.067c0-1.951.109-3.9.3-5.808H.78a22,22,0,0,0,0,11.615h10.4C11,26.969,10.889,25.018,10.889,23.067Zm3.584,8.711c1.316,8.1,4.419,13.793,8.031,13.793s6.715-5.69,8.031-13.793ZM28.929,44.628A22.574,22.574,0,0,0,43.267,31.778h-9.8c-.8,5.163-2.323,9.782-4.537,12.849ZM1.751,31.778A22.552,22.552,0,0,0,16.089,44.628c-2.214-3.067-3.739-7.686-4.537-12.849h-9.8Z" 
 transform="translate(0 -0.563)" 
 fill="#cf6a2f"
/>
</svg>