<svg
 xmlns="http://www.w3.org/2000/svg" 
 width="20" 
 height="20" 
 viewBox="0 0 48.047 48.047"
>
<path 
 d="M24.586.563A24.023,24.023,0,1,0,48.609,24.586,24.027,24.027,0,0,0,24.586.563Zm0,10.655a4.068,4.068,0,1,1-4.068,4.068A4.068,4.068,0,0,1,24.586,11.218Zm5.425,24.6a1.162,1.162,0,0,1-1.162,1.162H20.324a1.162,1.162,0,0,1-1.162-1.162V33.5a1.162,1.162,0,0,1,1.162-1.162h1.162v-6.2H20.324a1.162,1.162,0,0,1-1.162-1.162V22.648a1.162,1.162,0,0,1,1.162-1.162h6.2a1.162,1.162,0,0,1,1.162,1.162v9.687h1.162A1.162,1.162,0,0,1,30.01,33.5Z" 
 transform="translate(-0.563 -0.563)" 
 fill="#cf6a2f"
/>
</svg>